<svg xmlns="http://www.w3.org/2000/svg" xmlns:xlink="http://www.w3.org/1999/xlink" xmlns:serif="http://www.serif.com/" viewBox="0 0 32 40" version="1.1" xml:space="preserve" style="" x="0px" y="0px" fill-rule="evenodd" clip-rule="evenodd" stroke-linejoin="round" stroke-miterlimit="2"><g transform="matrix(1,0,0,1,-160,-288)"><g><path d="M189,304C189,311.175 183.175,317 176,317C168.825,317 163,311.175 163,304C163,296.825 168.825,291 176,291C183.175,291 189,296.825 189,304ZM181.293,301.293L176,306.586C176,306.586 170.707,301.293 170.707,301.293C170.317,300.903 169.683,300.903 169.293,301.293C168.903,301.683 168.903,302.317 169.293,302.707L175.293,308.707C175.683,309.098 176.317,309.098 176.707,308.707L182.707,302.707C183.097,302.317 183.097,301.683 182.707,301.293C182.317,300.903 181.683,300.903 181.293,301.293Z"/></g></g><text x="0" y="47" fill="#000000" font-size="5px" font-weight="bold" font-family="'Helvetica Neue', Helvetica, Arial-Unicode, Arial, Sans-serif">Created by Mada Creative</text><text x="0" y="52" fill="#000000" font-size="5px" font-weight="bold" font-family="'Helvetica Neue', Helvetica, Arial-Unicode, Arial, Sans-serif">from the Noun Project</text></svg>